<mxGraphModel dx="0" dy="0" grid="1" gridSize="10" guides="1" tooltips="1" connect="1" arrows="1" fold="1" page="0" pageScale="1" background="none" math="0" shadow="0">
  <root>
    <mxCell id="0" />
    <mxCell id="1" parent="0" />
    <mxCell id="node0" parent="1" vertex="1" value="&lt;p style=&quot;margin:0px;margin-top:4px;text-align:center;&quot;&gt;&lt;b&gt;Estudiante&lt;/b&gt;&lt;/p&gt;&lt;hr size=&quot;1&quot;/&gt;&lt;p style=&quot;margin:0 0 0 4px;line-height:1.6;&quot;&gt;- CORREO_VALIDO: String&lt;br/&gt;- libroPrestado: Libro&lt;br/&gt;- email: String&lt;br/&gt;- contadorEstudiantes: int&lt;br/&gt;- nombre: String&lt;br/&gt;- curso: String&lt;br/&gt;- nia: int&lt;/p&gt;&lt;hr size=&quot;1&quot;/&gt;&lt;p style=&quot;margin:0 0 0 4px;line-height:1.6;&quot;&gt;+ Estudiante(String): &lt;br/&gt;+ Estudiante(String, String, String): &lt;/p&gt;&lt;hr size=&quot;1&quot;/&gt;&lt;p style=&quot;margin:0 0 0 4px;line-height:1.6;&quot;&gt;+ setLibroPrestado(Libro): Libro&lt;br/&gt;+ getNombre(): String&lt;br/&gt;+ setCurso(String): void&lt;br/&gt;+ validarEmail(String): Boolean&lt;br/&gt;+ toString(): String&lt;br/&gt;+ getLibroPrestado(): Libro&lt;br/&gt;+ obtenerTotalEstudiantes(): int&lt;br/&gt;+ getEmail(): String&lt;br/&gt;+ getContadorEstudiantes(): int&lt;br/&gt;+ setEmail(String): void&lt;br/&gt;+ getNia(): int&lt;br/&gt;+ getCurso(): String&lt;br/&gt;+ setNombre(String): void&lt;/p&gt;" style="verticalAlign=top;align=left;overflow=fill;fontSize=14;fontFamily=Helvetica;html=1;rounded=0;shadow=0;comic=0;labelBackgroundColor=none;strokeWidth=1;">
      <mxGeometry x="-1389" y="818" width="270" height="540" as="geometry" />
    </mxCell>
    <mxCell id="node1" parent="1" vertex="1" value="&lt;p style=&quot;margin:0px;margin-top:4px;text-align:center;&quot;&gt;&lt;b&gt;Libro&lt;/b&gt;&lt;/p&gt;&lt;hr size=&quot;1&quot;/&gt;&lt;p style=&quot;margin:0 0 0 4px;line-height:1.6;&quot;&gt;- estudiantePrestado: Estudiante&lt;br/&gt;- cantidadLibros: int&lt;br/&gt;- ID_LIBROS: String&lt;br/&gt;- disponible: boolean&lt;br/&gt;- titulo: String&lt;br/&gt;- id: String&lt;br/&gt;- autor: String&lt;br/&gt;- librosDisponibles: int&lt;/p&gt;&lt;hr size=&quot;1&quot;/&gt;&lt;p style=&quot;margin:0 0 0 4px;line-height:1.6;&quot;&gt;+ Libro(String, String): &lt;/p&gt;&lt;hr size=&quot;1&quot;/&gt;&lt;p style=&quot;margin:0 0 0 4px;line-height:1.6;&quot;&gt;+ getAutor(): String&lt;br/&gt;+ prestar(Estudiante): void&lt;br/&gt;+ toString(): String&lt;br/&gt;+ setDisponible(boolean): void&lt;br/&gt;+ getDisponible(): boolean&lt;br/&gt;+ getTitulo(): String&lt;br/&gt;+ estaDisponible(): void&lt;br/&gt;+ setAutor(String): void&lt;br/&gt;+ setTitulo(String): void&lt;br/&gt;+ devolver(Estudiante): void&lt;br/&gt;+ getLibrosDisponibles(): int&lt;br/&gt;+ setEstudiantePrestado(Estudiante): void&lt;br/&gt;+ getTotalLibros(): int&lt;br/&gt;- generarIdLibro(): String&lt;br/&gt;+ getEstudiantePrestado(): Estudiante&lt;br/&gt;+ getId(): String&lt;/p&gt;" style="verticalAlign=top;align=left;overflow=fill;fontSize=14;fontFamily=Helvetica;html=1;rounded=0;shadow=0;comic=0;labelBackgroundColor=none;strokeWidth=1;">
      <mxGeometry x="-1976" y="808" width="300" height="609" as="geometry" />
    </mxCell>
    <mxCell id="edge1" edge="1" value="" parent="1" source="node0" target="node1" style="html=1;rounded=1;edgeStyle=orthogonalEdgeStyle;dashed=0;startArrow=diamondThinstartSize=12;endArrow=openThin;endSize=12;strokeColor=#595959;exitX=0.000;exitY=0.520;exitDx=0;exitDy=0;entryX=1.000;entryY=0.478;entryDx=0;entryDy=0;">
      <mxGeometry width="50" height="50" relative="1" as="geometry">
        <Array as="points" />
      </mxGeometry>
    </mxCell>
    <mxCell id="label6" parent="edge1" vertex="1" connectable="0" value="1" style="edgeLabel;resizable=0;html=1;align=left;verticalAlign=top;strokeColor=default;">
      <mxGeometry x="-1399" y="1089" as="geometry" />
    </mxCell>
    <mxCell id="label10" parent="edge1" vertex="1" connectable="0" value="1" style="edgeLabel;resizable=0;html=1;align=left;verticalAlign=top;strokeColor=default;">
      <mxGeometry x="-1538" y="1099" as="geometry" />
    </mxCell>
    <mxCell id="label11" parent="edge1" vertex="1" connectable="0" value="libroPrestado" style="edgeLabel;resizable=0;html=1;align=left;verticalAlign=top;strokeColor=default;">
      <mxGeometry x="-1671" y="1050" as="geometry" />
    </mxCell>
    <mxCell id="edge0" edge="1" value="" parent="1" source="node1" target="node0" style="html=1;rounded=1;edgeStyle=orthogonalEdgeStyle;dashed=0;startArrow=diamondThinstartSize=12;endArrow=openThin;endSize=12;strokeColor=#595959;exitX=1.000;exitY=0.511;exitDx=0;exitDy=0;entryX=0.000;entryY=0.557;entryDx=0;entryDy=0;">
      <mxGeometry width="50" height="50" relative="1" as="geometry">
        <Array as="points" />
      </mxGeometry>
    </mxCell>
    <mxCell id="label0" parent="edge0" vertex="1" connectable="0" value="1" style="edgeLabel;resizable=0;html=1;align=left;verticalAlign=top;strokeColor=default;">
      <mxGeometry x="-1671" y="1115" as="geometry" />
    </mxCell>
    <mxCell id="label4" parent="edge0" vertex="1" connectable="0" value="1" style="edgeLabel;resizable=0;html=1;align=left;verticalAlign=top;strokeColor=default;">
      <mxGeometry x="-1405" y="1115" as="geometry" />
    </mxCell>
    <mxCell id="label5" parent="edge0" vertex="1" connectable="0" value="estudiantePrestado" style="edgeLabel;resizable=0;html=1;align=left;verticalAlign=top;strokeColor=default;">
      <mxGeometry x="-1494" y="1051" as="geometry" />
    </mxCell>
  </root>
</mxGraphModel>